<!-- Placeholder SVG logo tạm thời cho StudyFlow -->
<svg width="512" height="512" viewBox="0 0 512 512" xmlns="http://www.w3.org/2000/svg">
  <!-- Background circle with gradient -->
  <defs>
    <linearGradient id="gradient" x1="0%" y1="0%" x2="100%" y2="100%">
      <stop offset="0%" style="stop-color:#00E6E6;stop-opacity:1" />
      <stop offset="50%" style="stop-color:#4F46E5;stop-opacity:1" />
      <stop offset="100%" style="stop-color:#7C3AED;stop-opacity:1" />
    </linearGradient>
  </defs>
  
  <circle cx="256" cy="256" r="240" fill="url(#gradient)" />
  
  <!-- Letter S -->
  <path d="M160 160 Q160 120 200 120 L320 120 Q360 120 360 160 Q360 200 320 200 L240 200 Q200 200 200 240 Q200 280 240 280 L340 280 Q380 280 380 320 Q380 360 340 360 L220 360 Q180 360 180 320 L220 320 Q220 340 240 340 L320 340 Q340 340 340 320 Q340 300 320 300 L260 300 Q240 300 240 280 Q240 260 260 260 L320 260 Q340 260 340 240 Q340 220 320 220 L200 220 Q180 220 180 200 Q180 160 200 160 Z" fill="white" />
  
  <!-- Star accent -->
  <polygon points="400,120 410,150 440,150 418,168 428,198 400,180 372,198 382,168 360,150 390,150" fill="#FFD700" />
</svg>
